<mxfile host="65bd71144e">
    <diagram id="Fh-xNAlVSuUiTF5pcLGg" name="第 1 页">
        <mxGraphModel dx="1148" dy="413" grid="1" gridSize="10" guides="1" tooltips="1" connect="1" arrows="1" fold="1" page="1" pageScale="1" pageWidth="827" pageHeight="1169" math="0" shadow="0">
            <root>
                <mxCell id="0"/>
                <mxCell id="1" parent="0"/>
                <mxCell id="2" value="" style="shape=image;verticalLabelPosition=bottom;labelBackgroundColor=#ffffff;verticalAlign=top;aspect=fixed;imageAspect=0;image=data:image/png,iVBORw0KGgoAAAANSUhEUgAAAl8AAAI2CAYAAABuRO2PAAAMaElEQVR4nO3dUWrjSBRAUfWQHSnb0JqM15RtJGvq+ejOwDQ0lmz5WnadAyEh2LjIg+JaFqkf8zz/nAAASPzz6AUAAIxEfAEAhMQXAEBIfAEAhMQXAEBIfAEAhMQXAEBIfAEAhMQXAEBIfAEAhMQXAEBIfAEAhMQXAEBIfAEAhMQXAEBIfAEAhMQXAEBIfAEAhMQXAEBIfAEAhMQXAEBIfAEAhMQXAEBIfAEAhMQXAEBIfAEAhMQXAEBIfAEAhMQXAEBIfAEAhMQXAEBIfAEAhMQXAEBIfAEAhMQXAEBIfAEAhMQXAEBIfAEAhMQXAEBIfAEAhMQXAEBIfAEAhMQXAEBIfAEAhMQXAEBIfAEAhMQXAEBIfAEAhMQXAEBIfAEAhMQXAEBIfAEAhMQXAEBIfAEAhMQXAEBIfAEAhMQXAEBIfAEAhMQXAEBIfAEAhMQXAEBIfAEAhMQXAEBIfAEAhMQXAEBIfAEAhMQXAEBIfAEAhMQXAEBIfAEAhMQXAEBIfAEAhMQXAEBIfAEAhMQXAEBIfAEAhMQXAEBIfAEAhMQXAEBIfAEAhMQXAEBIfAEAhMQXAEBIfAEAhMQXAEBIfAEAhMQXAEBIfAEAhMQXAEBIfAEAhMQXAEBIfAEAhMQXAEBIfAEAhMQXAEBIfAEAhMQXAEBIfAEAhMQXAEBIfAEAhMQXAEBIfAEAhMQXAEBIfAEAhMQXAEBIfAEAhMQXAEBIfAEAhMQXAEBIfAEAhMQXAEBIfAEAhMQXAEBIfAEAhMQXAEBIfAEAhMQXAEBIfAEAhMQXAEBIfAEAhMQXAEBIfAEAhMQXAEDo7dELoPX1+fnrh4+PdU9Ylml+f7/fgn77Op3WP3hZpmmaknW9AjMfj5nDsbnyNZj/NrLfGxuvz8zHY+ZwbOJrVGvfEfM6zHw8Zg6HJL5GZEMej5mPx8zhsMQXAEBIfAEAhMQXAEBIfAEAhMQXAEBIfAEAhMQXAEBIfAEAhMQXAEDIwdpctOkw3Gssi//GfTBmPh4zh44rXwAAIfEFABASXwAAIfEFABASXwAAIfEFABASXwAAIfEFABASXwAAIfEFABASXwAAIfHF/pbl1xfjMPPxmDlczcHa3O5vG/Cfv3eo7usw8/GYOezGlS9us+Wdr3fKr8HMx2PmsCvxxXVu2WBtzM/JzMdj5nAX4ovt9thUbczPxczHY+ZwN+KLbfbcTG3Mz8HMx2PmcFfiCwAgJL5Y7x7vYL0rPjYzH4+Zw92JL9axeY7HzMdj5pAQXwAAIfEFABASXwAAIfHFZe4DGY+Zj8fMISO+AABC4ovLHJQ7HjMfj5lDRnwBAITEFwBASHwBAITEF+u4H2Q8Zj4eM4eE+OKxbPbjMfPxmDn8j/hiPRvoeMx8PGYOdye+2GbPjdkm/xzMfDxmDnclvthuj83UhvxczHw8Zg538/boBfCkvjfVrUeS2Iyfl5mPx8zhLsQXt1m7OduMX4eZj8fMYVfii338uekui4341Zn5eMwcduGeLwCAkPgCAAiJLwCAkPgCAAiJLwCAkPgCAAiJLwCAkPgCAAiJLwCAkPgCAAiJLwCAkLMdWefSgbp7PYfjMPPxmDkkxBcXzefzNJ3Pm57z9fk5ze/v6x9/Om1dFndk5uMxc+j42BEAICS+AABC4gsAICS+AABC4gsAICS+AABC4gsAICS+AABC4gsAICS+AABCjhca1RHPYzviml7JEf++R1zTKzni3/eIa4LYj3mefz56EbyerWe+8fzMfDxmDtcRXwAAIfd8AQCExBcAQEh8AQCExBcAQEh8AQCExBcAQEh8AQCExBcAQEh8AQCExBcAQEh8AQCExBcAQEh8AQCExBcAQEh8AQCExBcAQEh8AQCExBcAQEh8AQCExBcAQEh8AQCExBcAQEh8AQCExBcAQEh8AQCExBcAQEh8AQCExBcAQEh8AQCExBcAQEh8AQCExBcAQEh8AQCExBcAQEh8AQCExBcAQEh8AQCExBcAQEh8AQCExBcAQEh8AQCExBcAQEh8AQCExBcAQEh8AQCExBcAQEh8AQCExBcAQEh8AQCExBcAQEh8AQCExBcAQEh8AQCExBcAQEh8AQCExBcAQEh8AQCExBcAQEh8AQCExBcAQEh8AQCExBcAQEh8AQCExBcAQEh8AQCExBcAQEh8AQCExBcAQEh8AQCExBcAQEh8AQCExBcAQEh8AQCExBcAQEh8AQCExBcAQEh8AQCExBcAQEh8AQCExBcAQEh8AQCExBcAQEh8AQCExBcAQEh8AQCExBcAQEh8AQCExBcAQEh8AQCExBcAQEh8AQCExBcAQEh8AQCExBcAQEh8AQCExBcAQEh8AQCExBcAQEh8AQCExBcAQEh8AQCExBcAQEh8AQCExBcAQEh8AQCExBcAQEh8AQCExBcAQEh8AQCExBcAQEh8AQCExBcAQEh8AQCExBcAQEh8AQCExBcAQEh8AQCExBcAQEh8AQCExBcAQEh8AQCExBcAQEh8AQCExBcAQEh8AQCExBcAQEh8AQCExBcAQEh8AQCExBcAQEh8AQCExBcAQEh8AQCExBcAQEh8AQCExBcAQEh8AQCExBcAQEh8AQCExBcAQEh8AQCExBcAQEh8AQCExBcAQEh8AQCExBcAQEh8AQCExBcAQEh8AQCExBcAQEh8AQCExBcAQEh8AQCExBcAQEh8AQCExBcAQEh8AQCExBcAQEh8AQCExBcAQEh8AQCExBcAQEh8AQCExBcAQEh8AQCExBcAQEh8AQCExBcAQEh8AQCExBcAQEh8AQCExBcAQEh8AQCE3h69AFqfn1/TNE3Tx8e6xy/LNL2/z1e9zpbnnU5fqx+7LL++X7MuAHg0V74G8x0s3wEDALTE16DWXvkCAPYlvgYkvADgccQXAEBIfAEAhMQXAEBIfAEAhMQXAEBIfAEAhMQXAEBIfAEAhMQXAEDIwdpctOXQ62uetyz+6z4A43DlCwAgJL4AAELiCwAgJL4AAELiCwAgJL4AAELiCwAgJL4AAELiCwAgJL4AAELiCwAgJL7Y3bI8egUAcFwO1uZmf4utP3/v8GwAcOWLG225yrUsrooBgPjiKreElAADYGTii832iCcBBsCoxBeb7BlNAgyAEYkvAICQ+GK1e1ypcvULgNGIL1YRSQCwD/EFABASXwAAIfEFABASX1zkfi8A2I/4AgAIiS8uciA2AOxHfAEAhMQXAEBIfAEAhMQXq7jvCwD2Ib54KFEHwGjEF6sJJQC4nfhikz0DTMwBMCLxxWZ7RJPwAmBUb49eAM/pO562Hj0kugAYnfjiJmsjTHQBwC/ii12IKwBYxz1fAAAh8QUAEBJfAAAh8QUAEBJfAAAh8QUAEBJfAAAh8QUAEBJfAAAh8QUAEBJfAAAhZzuyyqWDswGAdcQXF53P83Q+3/c1Tqev+74AAByEjx0BAELiCwAgJL4AAELiCwAgJL4AAELiCwAgJL4AAELiCwAgJL4AAELiCwAg5HihQR3xrMYjrgkA9vZjnuefj14EAMAofOwIABASXwAAIfEFABASXwAAIfEFABASXwAAIfEFABASXwAAIfEFABASXwAAIfEFABASXwAAIfEFABASXwAAIfEFABASXwAAIfEFABASXwAAIfEFABASXwAAIfEFABASXwAAIfEFABASXwAAIfEFABASXwAAIfEFABASXwAAIfEFABASXwAAIfEFABASXwAAIfEFABASXwAAIfEFABASXwAAIfEFABASXwAAIfEFABASXwAAIfEFABASXwAAIfEFABASXwAAIfEFABASXwAAIfEFABASXwAAIfEFABASXwAAIfEFABASXwAAIfEFABASXwAAIfEFABASXwAAIfEFABASXwAAIfEFABASXwAAIfEFABASXwAAIfEFABASXwAAIfEFABASXwAAIfEFABASXwAAIfEFABASXwAAIfEFABASXwAAIfEFABASXwAAIfEFABASXwAAIfEFABASXwAAIfEFABASXwAAIfEFABASXwAAIfEFABASXwAAIfEFABASXwAAIfEFABASXwAAIfEFABASXwAAIfEFABASXwAAIfEFABASXwAAIfEFABASXwAAIfEFABASXwAAIfEFABASXwAAIfEFABASXwAAIfEFABASXwAAIfEFABASXwAAIfEFABASXwAAIfEFABASXwAAIfEFABASXwAAIfEFABASXwAAIfEFABASXwAAoX8Ba7X9zFnwUG8AAAAASUVORK5CYII=;" parent="1" vertex="1">
                    <mxGeometry x="-790" y="90" width="193.05" height="180" as="geometry"/>
                </mxCell>
                <mxCell id="3" value="&lt;font face=&quot;Verdana&quot;&gt;分析如何实现当用户按下 J 键，我方坦克发射一颗子弹&lt;br&gt;&lt;br&gt;1. 当发射一颗子弹后，就相当于启动一个线程&lt;br&gt;2. Hero 类有子弹对象，当按下 J 时，就启动一个发射的行为（线程），让子弹不停地移动，形成一个射击的效果&lt;br&gt;3. MyPanel 需要不停地重绘子弹，才能出现该效果&lt;br&gt;4. 当子弹移动到面板的边界时，就应该把启动子弹的线程销毁&lt;br&gt;&lt;/font&gt;" style="rounded=0;whiteSpace=wrap;html=1;fillColor=#f0a30a;fontColor=#000000;strokeColor=#BD7000;align=left;verticalAlign=top;" parent="1" vertex="1">
                    <mxGeometry x="-596.95" y="90" width="300" height="180" as="geometry"/>
                </mxCell>
            </root>
        </mxGraphModel>
    </diagram>
</mxfile>